<svg xmlns="http://www.w3.org/2000/svg" version="1.1" xmlns:xlink="http://www.w3.org/1999/xlink" width="186" height="210.7"><svg xmlns="http://www.w3.org/2000/svg" version="1.1" xmlns:xlink="http://www.w3.org/1999/xlink" width="186" height="210.7"><svg id="Layer_1" xmlns="http://www.w3.org/2000/svg" version="1.1" viewBox="0 0 186 210.7">
  <!-- Generator: Adobe Illustrator 30.1.0, SVG Export Plug-In . SVG Version: 2.1.1 Build 136)  -->
  <defs>
    <style>
      .st0 {
        fill: #c0bfbf;
      }

      .st1 {
        fill: #1d1d1b;
      }

      .st2 {
        fill: #fff;
      }

      .st3 {
        fill: #219cac;
      }
    </style>
  </defs>
  <g>
    <polygon class="st2" points="5.8 155.7 5.8 55 93 4.7 180.2 55 180.2 155.7 93 206.1 5.8 155.7"></polygon>
    <path class="st1" d="M93,6.1l86,49.6v99.3l-86,49.6L7,155V55.7L93,6.1M93,3.2L4.5,54.3v102.1l88.5,51.1,88.5-51.1V54.3L93,3.2h0Z"></path>
  </g>
  <g>
    <g>
      <path class="st1" d="M22.2,129.2v4.2s10.2,5.9,10.2,5.9v8.7s-10.2-5.9-10.2-5.9v4.7s-3.5-2-3.5-2v-17.5s3.5,2,3.5,2Z"></path>
      <path class="st1" d="M28.2,117.7l4.3,2.5v8.7s-4.5-2.6-4.5-2.6l-9.2.2v-8.3s4.2.3,4.2.3l-4.2-4.4v-7.7s9.5,11.4,9.5,11.4Z"></path>
      <path class="st1" d="M26.9,91.3c1.3,1.4,2,3.1,2,6.5v4.8s3.6,2.1,3.6,2.1v8.2s-13.7-7.9-13.7-7.9v-11.8c0-2,.3-3,1.1-3.8s1.2-.6,2-.6c1.6,0,3.7,1.2,5,2.5ZM22.5,97.9v1.1s3.2,1.9,3.2,1.9v-1.5c0-.8-.4-1.3-1.2-1.7l-.6-.4c-.2-.1-.5-.2-.8-.3s-.7.1-.7.8Z"></path>
    </g>
    <path class="st1" d="M22.5,69.5v6.7c-.3-.2.2-.2-.2-.2s-.8.5-.8,1.5.5,1.9,1.1,1.9.7-.5,1.4-3.4c.7-2.9,1.3-3.9,2.9-3.8s2.6.7,3.7,1.9,2.3,3.6,2.3,8.8-1,7.9-3.1,7.8-1.1,0-1.8-.5v-6.9c.4.2.6.2,1,.2s.9-.5.9-1.5-.4-1.9-1.2-1.9-.8.6-1.6,3.6c-.7,2.9-1.3,3.7-2.8,3.6s-2.3-.7-3.4-1.8c-1.5-1.6-2.3-3.7-2.3-8.8,0-5.6.9-7.6,3-7.5s.5,0,1.1.4Z"></path>
    <g>
      <g>
        <path class="st1" d="M32.8,53.5l9.4-5.4,18.1,5.4-7.6,4.4-3.5-1.2-4.1,2.4,2,2-5.3,3.1-9-10.6ZM39.9,53.5l3,3.1,2.3-1.3-5.2-1.8Z"></path>
        <path class="st1" d="M71.8,46.8l-10.5,6.1-13.7-7.9,9.5-5.5c4.2-2.4,6.2-3,8.2-2.5.9.2,1.8.7,2.3,1.5s.2,2.1-.5,2.8c2.1-1,3.6-1.2,4.9-.9,1.2.3,2,.8,2.6,1.8,1.1,1.7-.2,3.2-2.8,4.7ZM61,42.2h-.2c-.4-.4-1.1-.6-2,0l-1.3.7,2.6,1.5,1-.6c.7-.4.7-.8.5-1.1s-.4-.3-.6-.5ZM65.8,45.1l-.3-.2c-.4-.2-1.1-.4-1.9,0l-1.2.7,2.6,1.5.9-.5c.7-.4.7-.8.5-1.1s-.4-.3-.6-.5Z"></path>
        <path class="st1" d="M78.9,42.7l-13.7-7.9,7.3-4.2,10.1,5.8,5.2-2.9,3.6,2.1-12.5,7.1Z"></path>
        <path class="st1" d="M106.1,27.1l-13.5,7.8-13.7-7.9,13.5-7.8,3.5,2-6.6,3.8,1.7,1,5.7-3.3,3.3,1.9-5.7,3.3,1.8,1,6.6-3.8,3.5,2Z"></path>
      </g>
      <polygon class="st1" points="30.1 55.1 18.7 61.6 18.7 66.1 22.5 68.3 22.5 63.9 32.4 69.6 39.9 65.2 29.7 59.3 33.6 57.1 30.1 55.1"></polygon>
    </g>
  </g>
  <polygon class="st0" points="104.1 103 94.4 108.6 94.4 117.8 104.1 112.3 104.1 103"></polygon>
  <polygon class="st0" points="104.1 115 94.4 120.5 94.4 129.7 104.1 124.2 104.1 115"></polygon>
  <polygon class="st0" points="104.1 126.9 94.4 132.5 94.4 141.7 104.1 136.1 104.1 126.9"></polygon>
  <polygon class="st0" points="116.2 105.3 116.2 96 106.6 101.6 106.6 110.8 116.2 105.3"></polygon>
  <polygon class="st0" points="116.2 119.9 106.6 125.5 106.6 134.7 116.2 129.1 116.2 119.9"></polygon>
  <polygon class="st0" points="116.2 108 106.6 113.5 106.6 122.8 116.2 117.2 116.2 108"></polygon>
  <polygon class="st0" points="128.3 124.8 118.7 130.4 118.7 139.6 128.3 134.1 128.3 124.8"></polygon>
  <polygon class="st0" points="128.3 112.9 118.7 118.5 118.7 127.7 128.3 122.1 128.3 112.9"></polygon>
  <polygon class="st0" points="128.3 136.8 118.7 142.3 118.7 151.6 128.3 146 128.3 136.8"></polygon>
  <polygon class="st0" points="128.3 98.3 128.3 89 118.7 94.6 118.7 103.8 128.3 98.3"></polygon>
  <polygon class="st0" points="128.3 110.2 128.3 101 118.7 106.5 118.7 115.8 128.3 110.2"></polygon>
  <polygon class="st0" points="140.4 103.2 140.4 94 130.8 99.5 130.8 108.8 140.4 103.2"></polygon>
  <polygon class="st0" points="140.4 115.1 140.4 105.9 130.8 111.5 130.8 120.7 140.4 115.1"></polygon>
  <polygon class="st0" points="140.4 117.8 130.8 123.4 130.8 132.6 140.4 127.1 140.4 117.8"></polygon>
  <polygon class="st0" points="140.4 91.3 140.4 82 130.8 87.6 130.8 96.8 140.4 91.3"></polygon>
  <polygon class="st0" points="152.5 96.2 152.5 87 142.9 92.5 142.9 101.8 152.5 96.2"></polygon>
  <polygon class="st0" points="152.5 120.1 152.5 110.8 142.9 116.4 142.9 125.6 152.5 120.1"></polygon>
  <polygon class="st0" points="152.5 108.1 152.5 98.9 142.9 104.5 142.9 113.7 152.5 108.1"></polygon>
  <polygon class="st0" points="142.9 137.6 152.5 132 152.5 122.8 142.9 128.3 142.9 137.6"></polygon>
  <polygon class="st0" points="152.5 84.3 152.5 75 142.9 80.6 142.9 89.8 152.5 84.3"></polygon>
  <polygon class="st0" points="164.7 77.3 164.7 68 155 73.6 155 82.8 164.7 77.3"></polygon>
  <polygon class="st0" points="164.7 89.2 164.7 80 155 85.5 155 94.8 164.7 89.2"></polygon>
  <polygon class="st0" points="167.2 111.6 176.8 106.1 176.8 96.8 167.2 102.4 167.2 111.6"></polygon>
  <polygon class="st0" points="176.8 70.3 176.8 61 167.2 66.6 167.2 75.8 176.8 70.3"></polygon>
  <polygon class="st0" points="167.2 123.6 176.8 118 176.8 108.8 167.2 114.3 167.2 123.6"></polygon>
  <polygon class="st0" points="167.2 135.5 176.8 129.9 176.8 120.7 167.2 126.3 167.2 135.5"></polygon>
  <polygon class="st0" points="176.8 94.1 176.8 84.9 167.2 90.5 167.2 99.7 176.8 94.1"></polygon>
  <polygon class="st0" points="176.8 82.2 176.8 73 167.2 78.5 167.2 87.8 176.8 82.2"></polygon>
  <polygon class="st3" points="104.1 150.8 94.4 156.3 94.4 165.6 104.1 160 104.1 150.8"></polygon>
  <polygon class="st3" points="104.1 162.7 94.4 168.3 94.4 177.5 104.1 171.9 104.1 162.7"></polygon>
  <polygon class="st3" points="104.1 138.8 94.4 144.4 94.4 153.6 104.1 148.1 104.1 138.8"></polygon>
  <polygon class="st3" points="104.1 186.6 94.4 192.1 94.4 201.4 104.1 195.8 104.1 186.6"></polygon>
  <polygon class="st3" points="104.1 174.6 94.4 180.2 94.4 189.4 104.1 183.9 104.1 174.6"></polygon>
  <polygon class="st3" points="116.2 179.6 106.6 185.1 106.6 194.4 116.2 188.8 116.2 179.6"></polygon>
  <polygon class="st3" points="116.2 155.7 106.6 161.3 106.6 170.5 116.2 164.9 116.2 155.7"></polygon>
  <polygon class="st3" points="116.2 167.6 106.6 173.2 106.6 182.4 116.2 176.9 116.2 167.6"></polygon>
  <polygon class="st3" points="116.2 131.8 106.6 137.4 106.6 146.6 116.2 141.1 116.2 131.8"></polygon>
  <polygon class="st3" points="116.2 143.8 106.6 149.3 106.6 158.6 116.2 153 116.2 143.8"></polygon>
  <polygon class="st3" points="128.3 148.7 118.7 154.3 118.7 163.5 128.3 157.9 128.3 148.7"></polygon>
  <polygon class="st3" points="128.3 160.6 118.7 166.2 118.7 175.4 128.3 169.9 128.3 160.6"></polygon>
  <polygon class="st3" points="128.3 172.6 118.7 178.1 118.7 187.4 128.3 181.8 128.3 172.6"></polygon>
  <polygon class="st3" points="140.4 129.8 130.8 135.3 130.8 144.6 140.4 139 140.4 129.8"></polygon>
  <polygon class="st3" points="140.4 141.7 130.8 147.3 130.8 156.5 140.4 150.9 140.4 141.7"></polygon>
  <polygon class="st3" points="140.4 153.6 130.8 159.2 130.8 168.4 140.4 162.9 140.4 153.6"></polygon>
  <polygon class="st3" points="130.8 171.1 130.8 180.4 140.4 174.8 140.4 165.6 130.8 171.1"></polygon>
  <polygon class="st3" points="142.9 152.2 142.9 161.4 152.5 155.9 152.5 146.6 142.9 152.2"></polygon>
  <polygon class="st3" points="142.9 164.1 142.9 173.4 152.5 167.8 152.5 158.6 142.9 164.1"></polygon>
  <polygon class="st3" points="142.9 149.5 152.5 143.9 152.5 134.7 142.9 140.3 142.9 149.5"></polygon>
  <polygon class="st3" points="155 118.6 164.7 113.1 164.7 103.8 155 109.4 155 118.6"></polygon>
  <polygon class="st3" points="155 130.6 164.7 125 164.7 115.8 155 121.3 155 130.6"></polygon>
  <polygon class="st3" points="155 154.4 164.7 148.9 164.7 139.6 155 145.2 155 154.4"></polygon>
  <polygon class="st3" points="155 142.5 164.7 136.9 164.7 127.7 155 133.3 155 142.5"></polygon>
  <polygon class="st3" points="164.7 101.1 164.7 91.9 155 97.5 155 106.7 164.7 101.1"></polygon>
  <polygon class="st3" points="155 157.1 155 166.4 164.7 160.8 164.7 151.6 155 157.1"></polygon>
  <polygon class="st3" points="167.2 147.4 176.8 141.9 176.8 132.6 167.2 138.2 167.2 147.4"></polygon>
  <polygon class="st3" points="167.2 150.1 167.2 159.4 176.8 153.8 176.8 144.6 167.2 150.1"></polygon>
</svg></svg><style>@media (prefers-color-scheme: light) { :root { filter: none; } }
@media (prefers-color-scheme: dark) { :root { filter: none; } }
</style></svg>